# xmcd
#
# Track frame offsets:
#	183
#	13440
#	23520
#	36905
#	48675
#	61753
#	72878
#	85825
#	97760
#	107038
#	122808
#	134535
#	148018
#	159503
#	170585
#	181245
#	192735
#	207480
#	219295
#	234733
#	244645
#	262653
#	279640
#	292135
#	305735
#
# Disc length: 4292
#
# Revision: 3
# Processed by: cddbd v1.5.1PL0 Copyright (c) Steve Scherf et al.
# Submitted via: FreeRIP 2.11 
# Normalized: r2:TDELIM( - )
#
DISCID=7810c219
DTITLE=100 Soul Hits
DYEAR=1991
DGENRE=Soul
TTITLE0=Sam and Dave - Soul Man
TTITLE1=James Brown - Papa's Got A Brand New Bag
TTITLE2=Eddie Floyd - Knock On Wood
TTITLE3=The Drifters - Under The Boardwalk
TTITLE4=Fontella Bass - Rescue ME
TTITLE5=Brook Benton - It's Just A Matter Of Time
TTITLE6=Doby Gray - The In Crowd
TTITLE7=Maxine Brown - Oh no! Not My Baby
TTITLE8=Gladys Knight - Every Beat Of My Heart
TTITLE9=George McCrae - Rock Your Baby
TTITLE10=Robert Parker - Barefootin'
TTITLE11=Percy Sledge - When A Man Loves A Woman
TTITLE12=Mel and Tim - Backfield In A Motion
TTITLE13=Sam and Dave - You Don't Know What You Mean To Me
TTITLE14=Soul Survivors - Expressway To Your Heart
TTITLE15=The Drifters - Save The Last Dance For Me
TTITLE16=Sam and Dave - When Something Is Wrong With My Baby
TTITLE17=Wilson Pickett - If You Need Me
TTITLE18=Rufus Thomas - Do The Funky Chicken
TTITLE19=James Brown - Please, Please, Please
TTITLE20=Brook Benton - Rainy Night In Georgia
TTITLE21=Solomon Burke - Hold On I'm Coming
TTITLE22=Eddie Floyd - Bring It On Home To Me
TTITLE23=Ben E. King - Stand By Me
TTITLE24=James Brown - I Got The Feeling
EXTD=
EXTT0=
EXTT1=
EXTT2=
EXTT3=
EXTT4=
EXTT5=
EXTT6=
EXTT7=
EXTT8=
EXTT9=
EXTT10=
EXTT11=
EXTT12=
EXTT13=
EXTT14=
EXTT15=
EXTT16=
EXTT17=
EXTT18=
EXTT19=
EXTT20=
EXTT21=
EXTT22=
EXTT23=
EXTT24=
PLAYORDER=
